<svg width="586" height="188" viewBox="0 0 586 188" fill="none" xmlns="http://www.w3.org/2000/svg">
<path fill-rule="evenodd" clip-rule="evenodd" d="M325.713 40.1067C325.713 17.9564 343.669 0 365.82 0H545.318C567.468 0 585.424 17.9564 585.424 40.1067V147.893C585.424 170.044 567.468 188 545.318 188H365.82C343.669 188 325.713 170.044 325.713 147.893V40.1067ZM523.568 25.6373H559.659V159.977H523.568V25.6373ZM342.9 159.977H375.383L386.811 133.911H454.382L466.012 159.977H498.494V151.957L438.743 25.6373H402.651L372.776 88.797L342.9 151.957V159.977ZM400.245 103.835H441.149L420.697 57.9189L400.245 103.835Z" fill="#FF8E0A"/>
<path fill-rule="evenodd" clip-rule="evenodd" d="M375.383 159.977H342.9V151.957L372.776 88.797L402.651 25.6373H438.743L498.494 151.957V159.977H466.012L454.382 133.911H386.811L375.383 159.977ZM441.149 103.835H400.245L420.697 57.9189L441.149 103.835Z" fill="white"/>
<path d="M523.568 25.6373H559.659V159.977H523.568V25.6373Z" fill="white"/>
<path d="M136.345 73.3385V81.3588C136.345 107.826 119.101 129.48 77.3957 129.48C62.9592 129.48 49.1242 129.48 36.0912 127.475V163.567H0V29.2269C22.8578 26.6204 49.1242 25.2168 73.3855 25.2168H78.9997C123.913 25.2168 136.345 46.8716 136.345 73.3385ZM71.7815 97.3994C100.253 97.3994 100.253 88.9781 100.253 77.3486C100.253 65.5187 100.253 57.2979 73.185 57.2979C64.7637 57.2979 49.3247 57.8995 36.0912 59.1025V95.5948C48.5227 97.1989 59.3501 97.3994 71.7815 97.3994Z" fill="#002C9E"/>
<path d="M303.118 163.567H268.23L241.362 121.46C227.126 121.46 213.692 121.46 200.859 119.455V163.567H164.768V29.2269C187.626 26.6204 213.892 25.2168 238.154 25.2168H243.768C288.681 25.2168 301.113 45.067 301.113 69.3284V77.3486C301.113 94.1912 295.499 108.828 278.255 116.247L303.118 155.546V163.567ZM238.555 57.2979C229.331 57.2979 214.093 57.8995 200.859 59.1025V87.5745C213.291 89.1786 225.522 89.3791 232.339 89.3791C264.42 89.3791 265.022 83.7649 265.022 71.1329C265.022 63.9147 264.821 57.2979 238.555 57.2979Z" fill="#002C9E"/>
</svg>
